# xmcd
#
# Track frame offsets:
#	150
#	28233
#	35758
#	53934
#	57551
#	65343
#	83439
#	99528
#	104659
#	119676
#	136835
#	140283
#	165009
#	183387
#	188257
#	209181
#	234461
#	242425
#	265216
#	271377
#	292868
#	298797
#
# Disc length: 4180 seconds
# Revision: 0
# Processed by: cddbd v1.5.2PL0 Copyright (c) Steve Scherf et al.
# Submitted via: dBpowerAMP V12.0
#
DISCID=45105216
DTITLE=Rosalie Sorrels - Strangers In Another Country: The Songs Of Burce "Utah" Phillips
DYEAR=2008
DGENRE=Folk
TTITLE0=Starlight On The Rails
TTITLE1=Mountain Valley Home
TTITLE2=Green Rolling Hills Of West Virginia
TTITLE3=I Feel Drunk All The Time
TTITLE4=Don't Go Home
TTITLE5=Schofield Mine Disaster
TTITLE6=He Comes Like Rain
TTITLE7=God And The Garbage Man (for Lew Welch)
TTITLE8=Old Buddy Goodnight
TTITLE9=She'll Never Be Mine
TTITLE10=Will This Would Survive?
TTITLE11=I Had A Mule
TTITLE12=Jesse's Corrido
TTITLE13=Who Said This?
TTITLE14=Enola Gay
TTITLE15=Goodnight Loving Trail
TTITLE16=Ed Balchowsky
TTITLE17=Eddie's Song
TTITLE18=Ashes Intro
TTITLE19=Ashes On The Sea
TTITLE20=Revolutionary Mandate
TTITLE21=Talkin' Wolverine
EXTD=
EXTT0=
EXTT1=
EXTT2=
EXTT3=
EXTT4=
EXTT5=
EXTT6=
EXTT7=
EXTT8=
EXTT9=
EXTT10=
EXTT11=
EXTT12=
EXTT13=
EXTT14=
EXTT15=
EXTT16=
EXTT17=
EXTT18=
EXTT19=
EXTT20=
EXTT21=
PLAYORDER=
